PathFileType  4	(X/Y/Z) C:\Users\antoi\Documents\MyRepositories\mobilecap\ResultsAnalysis
DataRate	CameraRate	NumFrames	NumMarkers	Units	OrigDataRate	OrigDataStartFrame	OrigNumFrames
100.0	100.0	4	51	mm	100.0	1	311
Frame#	Time	r_knee			r_shank_antsup			r_ankle			r_calc			r_5meta			r_toe			L_knee			L_shank_antsup			L_ankle			L_calc			L_5meta			L_toe			r_sh2			r_sh3			r_sh4			L_sh2			L_sh3			r_thigh1			r_thigh2			r_thigh3			r_thigh4			r_thigh5			L_thigh1			L_thigh2			L_thigh3			L_thigh4			r.ASIS			r.PSIS			L.ASIS			L.PSIS			C7			R_Shoulder			L_Shoulder			R_Sternum			L_Sternum			R_humerus			R_elbow_med			R_elbow_lat			R_forearm			R_wrist_radius			R_wrist_ulna			L_humerus			L_elbow_med			L_elbow_lat			L_forearm			L_wrist_radius			L_wrist_ulna			R_HJC			L_HJC			R_HJC_reg			L_HJC_reg			
		X1	Y1	Z1	X2	Y2	Z2	X3	Y3	Z3	X4	Y4	Z4	X5	Y5	Z5	X6	Y6	Z6	X7	Y7	Z7	X8	Y8	Z8	X9	Y9	Z9	X10	Y10	Z10	X11	Y11	Z11	X12	Y12	Z12	X13	Y13	Z13	X14	Y14	Z14	X15	Y15	Z15	X16	Y16	Z16	X17	Y17	Z17	X18	Y18	Z18	X19	Y19	Z19	X20	Y20	Z20	X21	Y21	Z21	X22	Y22	Z22	X23	Y23	Z23	X24	Y24	Z24	X25	Y25	Z25	X26	Y26	Z26	X27	Y27	Z27	X28	Y28	Z28	X29	Y29	Z29	X30	Y30	Z30	X31	Y31	Z31	X32	Y32	Z32	X33	Y33	Z33	X34	Y34	Z34	X35	Y35	Z35	X36	Y36	Z36	X37	Y37	Z37	X38	Y38	Z38	X39	Y39	Z39	X40	Y40	Z40	X41	Y41	Z41	X42	Y42	Z42	X43	Y43	Z43	X44	Y44	Z44	X45	Y45	Z45	X46	Y46	Z46	X47	Y47	Z47	X48	Y48	Z48	X49	Y49	Z49	X50	Y50	Z50	X51	Y51	Z51	

1	0.00000000	-1175.08616	783.43875	-423.83577	-1145.14204	722.02830	-421.24735	-1207.66528	393.04342	-423.80945	-1262.12698	363.12762	-464.84881	-1100.33105	349.87327	-393.77890	-1060.62025	366.67924	-447.58609	-1147.90623	777.04118	-703.53141	-1117.64352	691.54172	-691.77753	-1204.80774	401.55304	-705.21682	-1262.62109	359.65281	-661.15618	-1104.19397	352.40970	-734.19861	-1053.84459	366.77925	-680.01678	-1164.84277	611.18457	-407.69353	-1216.11565	739.56184	-398.59639	-1242.97804	624.20254	-390.90560	-1192.34518	718.85808	-736.88905	-1212.77258	595.59654	-741.77514	-1114.35154	1032.26109	-379.12433	-1115.36771	919.30713	-396.61097	-1224.69621	918.30440	-418.69631	-1226.46041	1031.55536	-393.91472	-1178.39322	897.75292	-395.56686	-1094.42486	1054.78366	-756.70111	-1091.56955	917.57060	-728.72286	-1205.82657	1047.23775	-761.86187	-1206.22307	917.44656	-714.01281	-1062.94076	1235.04295	-452.37498	-1269.69771	1270.77938	-539.29757	-1052.60209	1237.94723	-675.83227	-1262.96398	1272.39691	-622.00293	-1173.83236	1713.03813	-562.04832	-1128.10965	1680.86445	-415.98100	-1117.15893	1684.62744	-699.16976	-1050.05407	1645.96010	-530.49398	-1049.97025	1646.72766	-571.84769	-1103.88931	1569.39689	-351.67816	-1200.08105	1367.01329	-337.02871	-1157.37251	1380.21599	-286.01800	-1085.19324	1316.98134	-286.59541	-1024.12639	1186.29734	-300.29731	-1044.92530	1177.59788	-268.93259	-1103.59947	1584.04936	-772.94387	-1151.12640	1361.38403	-775.62974	-1120.42709	1386.34028	-829.05898	-1044.10627	1309.59504	-839.16975	-983.41662	1196.26624	-829.24134	-1008.79463	1185.66880	-858.81530	-1148.78590	1150.26679	-466.56586	-1136.32156	1155.11034	-673.64197	-1136.46532	1167.58853	-490.44849	-1124.48567	1170.46619	-637.58558	
2	0.01000000	-1175.06586	783.36258	-423.75593	-1145.03026	721.92282	-421.17840	-1207.63707	393.09481	-423.70050	-1262.30701	362.98559	-464.89306	-1100.37120	349.83681	-393.79846	-1060.62513	366.83399	-447.55147	-1148.18193	777.06342	-703.35813	-1117.77774	691.60009	-691.82581	-1204.82904	401.55683	-705.20418	-1262.59811	359.69493	-661.18995	-1104.19180	352.41763	-734.19023	-1053.76963	366.91232	-680.12073	-1164.70775	611.19830	-407.67219	-1215.84295	739.44010	-398.37607	-1242.93754	624.05435	-390.85448	-1192.61879	718.87773	-737.00124	-1213.02480	595.54318	-741.68364	-1114.56297	1032.15102	-379.11261	-1115.50932	919.44390	-396.44069	-1224.94293	918.08534	-418.67890	-1226.74077	1031.44971	-393.91558	-1178.64517	897.66334	-395.29140	-1095.15244	1054.92823	-756.57731	-1092.06392	917.62788	-728.90696	-1206.42325	1047.20697	-761.86166	-1206.72626	917.47644	-714.03163	-1063.29192	1234.97450	-452.21448	-1270.04383	1271.00951	-539.05748	-1053.23693	1237.87089	-675.87506	-1263.45954	1272.68662	-621.69952	-1172.82369	1713.17858	-561.84325	-1126.95782	1680.92779	-415.58876	-1116.39936	1684.57634	-698.87143	-1049.18107	1645.60609	-530.17563	-1049.12711	1646.42166	-571.44876	-1102.69343	1569.28222	-351.63603	-1198.67896	1367.04148	-336.10320	-1156.17878	1380.27588	-285.63453	-1083.85953	1317.13705	-286.32065	-1022.50509	1186.59753	-300.19775	-1043.24527	1177.93393	-268.69003	-1102.86718	1584.20577	-772.74126	-1150.17306	1361.58251	-776.02698	-1119.22677	1386.68135	-829.48132	-1042.64346	1310.07696	-839.27613	-981.38466	1197.13113	-829.64726	-1006.75937	1186.40162	-858.99388	-1149.28830	1150.33021	-466.42463	-1137.05412	1155.17158	-673.51447	-1136.91354	1167.48573	-490.24727	-1125.17933	1170.47444	-637.52761	
3	0.02000000	-1175.03336	783.27245	-423.66282	-1144.93584	721.84068	-421.11630	-1207.62855	393.11526	-423.64540	-1262.38425	362.92853	-464.87148	-1100.40456	349.82126	-393.79673	-1060.64838	366.90387	-447.48891	-1148.40351	777.05030	-703.25255	-1117.88664	691.62857	-691.85184	-1204.84491	401.57460	-705.23530	-1262.56356	359.68872	-661.17099	-1104.20132	352.46429	-734.23432	-1053.75641	366.99476	-680.18084	-1164.59522	611.20599	-407.64253	-1215.63819	739.22909	-398.29408	-1242.89123	623.98796	-390.79932	-1192.80231	718.90959	-737.04855	-1213.15764	595.55381	-741.72426	-1114.87026	1032.12174	-379.06796	-1115.77591	919.53310	-396.31536	-1225.19358	917.92163	-418.67677	-1227.11334	1031.29590	-394.01696	-1178.92887	897.51281	-395.30976	-1095.82279	1054.98499	-756.59659	-1092.55372	917.69659	-728.90299	-1207.03342	1047.24229	-761.98807	-1207.16883	917.48477	-714.07186	-1063.62180	1234.89121	-452.12448	-1270.42812	1271.26873	-538.74067	-1053.86856	1237.84721	-675.82150	-1263.91501	1273.06715	-621.41953	-1171.75844	1713.33909	-561.57645	-1125.74816	1680.83531	-415.39121	-1115.60660	1684.55412	-698.65985	-1048.27519	1645.27842	-529.98468	-1048.24475	1646.06973	-571.20204	-1101.38987	1569.19733	-351.50266	-1197.30317	1366.92207	-335.66945	-1154.91547	1380.29022	-285.13286	-1082.57460	1317.32918	-285.96594	-1020.98658	1186.84530	-300.21642	-1041.56831	1178.17594	-268.59020	-1102.06343	1584.35092	-772.32827	-1149.15656	1361.63541	-776.57017	-1118.01867	1386.97762	-829.85553	-1041.11508	1310.63175	-839.18290	-979.50601	1197.89004	-829.37900	-1004.64902	1187.15495	-858.98672	-1149.80206	1150.39201	-466.30174	-1137.79363	1155.30625	-673.40310	-1137.39421	1167.38968	-490.20173	-1125.79023	1170.59343	-637.50374	
4	0.03000000	-1175.00510	783.20009	-423.58083	-1144.81223	721.79509	-421.00652	-1207.68485	393.04989	-423.66275	-1262.40359	362.92791	-464.83971	-1100.41458	349.82059	-393.77676	-1060.71382	366.93213	-447.47266	-1148.57349	777.01361	-703.19910	-1117.95904	691.64014	-691.86311	-1204.85656	401.60285	-705.27983	-1262.53237	359.68675	-661.14117	-1104.21668	352.52032	-734.28746	-1053.79283	367.02248	-680.17604	-1164.48412	611.16374	-407.63366	-1215.49616	738.98166	-398.32900	-1242.82826	623.94135	-390.74969	-1192.91979	718.94636	-737.05074	-1213.20076	595.61414	-741.83433	-1115.28796	1032.11772	-378.93923	-1116.12703	919.58709	-396.23849	-1225.45632	917.79839	-418.66953	-1227.53887	1031.15523	-394.11380	-1179.23855	897.34378	-395.47717	-1096.47827	1055.05281	-756.78318	-1093.01186	917.69818	-728.75249	-1207.67335	1047.23808	-761.97448	-1207.56937	917.43415	-714.03926	-1064.00031	1234.75805	-452.17014	-1270.86316	1271.59651	-538.42729	-1054.46770	1237.85246	-675.70251	-1264.33750	1273.46135	-621.12251	-1170.60228	1713.47497	-561.18718	-1124.44029	1680.60560	-415.29893	-1114.70683	1684.52998	-698.36276	-1047.30827	1644.93322	-529.85801	-1047.30902	1645.71208	-571.00446	-1100.04286	1569.14225	-351.26473	-1196.07794	1366.82324	-335.29470	-1153.65090	1380.30560	-284.59334	-1081.32112	1317.51378	-285.63052	-1019.52203	1187.11347	-300.17409	-1039.96395	1178.28825	-268.62488	-1101.18254	1584.47302	-771.80883	-1148.10444	1361.67057	-777.19367	-1116.80730	1387.23880	-830.15493	-1039.58037	1311.22096	-839.06612	-977.69973	1198.65944	-828.82789	-1002.47667	1187.91281	-858.85815	-1150.35826	1150.43261	-466.22491	-1138.55385	1155.48369	-673.33475	-1137.99864	1167.44919	-490.29213	-1126.38398	1170.76830	-637.47682	
